# xmcd
#
# Track frame offsets:
# 150
# 10301
# 19191
# 29071
# 41132
# 65112
# 76085
# 89381
# 98329
# 112560
# 137250
#
# Disc length: 2689 seconds
#
#
# Revision: 1
# Processed by: cddbd v1.5.1PL0 Copyright (c) Steve Scherf et al.
# Submitted via: FreeRIP 2.931 
#
DISCID=7c0a7f0b
DTITLE=The Chariot - Everything is Alive, Everything is Breathing, Nothing is Dead and Nothing is Bleeding
DYEAR=2004
DGENRE=Chaoscore
TTITLE0=Before There Was Atlanta, There Was Douglasville
TTITLE1=Someday, In The Event That Mankind Firgures Out What it is This World Revolves Around, Thousands Will Be Shocked and Perplexed T
TTITLE2=Dialogue With a Question Mark.
TTITLE3=Die Interviewer (I Am Only Speaking German)
TTITLE4=And Then, Came Then
TTITLE5=The Company, The Comfort, The Grave
TTITLE6=The Bullet Never Lies, and Time Will Prove All Things (An Allegory Of Unfaithful Jerusalem)
TTITLE7=Yellow dress, Locked knees.
TTITLE8=If Wishes Were Horses, More Beggars Would Ride Them
TTITLE9=Good Night My Lady, and Forever Farewell
TTITLE10=Data
EXTD=
EXTT0=
EXTT1=
EXTT2=
EXTT3=
EXTT4=
EXTT5=
EXTT6=
EXTT7=
EXTT8=
EXTT9=
EXTT10=
PLAYORDER=
